HIERARCHY
ROOT hip
{
  OFFSET 0 0 0
  CHANNELS 6 Xposition Yposition Zposition Zrotation Yrotation Xrotation
  JOINT abdomen
  {
    OFFSET 0 20.6881 -0.73152
    CHANNELS 3 Zrotation Xrotation Yrotation
    JOINT chest
    {
      OFFSET 0 11.7043 -0.48768
      CHANNELS 3 Zrotation Xrotation Yrotation
      JOINT neck
      {
        OFFSET 0 22.1894 -2.19456
        CHANNELS 3 Zrotation Xrotation Yrotation
        JOINT head
        {
          OFFSET -0.24384 7.07133 1.2192
          CHANNELS 3 Zrotation Xrotation Yrotation
          JOINT leftEye
          {
            OFFSET 4.14528 8.04674 8.04672
            CHANNELS 3 Zrotation Xrotation Yrotation
            End Site
            {
              OFFSET 1 0 0
            }
          }
          JOINT rightEye
          {
            OFFSET -3.6576 8.04674 8.04672
            CHANNELS 3 Zrotation Xrotation Yrotation
            End Site
            {
              OFFSET 1 0 0
            }
          }
        }
      }
      JOINT rCollar
      {
        OFFSET -2.68224 19.2634 -4.8768
        CHANNELS 3 Zrotation Xrotation Yrotation
        JOINT rShldr
        {
          OFFSET -8.77824 -1.95073 1.46304
          CHANNELS 3 Zrotation Xrotation Yrotation
          JOINT rForeArm
          {
            OFFSET -28.1742 -1.7115 0.48768
            CHANNELS 3 Zrotation Xrotation Yrotation
            JOINT rHand
            {
              OFFSET -22.5879 0.773209 7.07136
              CHANNELS 3 Zrotation Xrotation Yrotation
              JOINT rThumb1
              {
                OFFSET -1.2192 -0.487915 3.41376
                CHANNELS 3 Zrotation Xrotation Yrotation
                JOINT rThumb2
                {
                  OFFSET -3.37035 -0.52449 3.41376
                  CHANNELS 3 Zrotation Xrotation Yrotation
                  End Site
                  {
                    OFFSET -1.78271 -1.18214 1.43049
                  }
                }
              }
              JOINT rIndex1
              {
                OFFSET -7.75947 0.938293 5.60832
                CHANNELS 3 Zrotation Xrotation Yrotation
                JOINT rIndex2
                {
                  OFFSET -2.54057 -0.884171 1.56538
                  CHANNELS 3 Zrotation Xrotation Yrotation
                  End Site
                  {
                    OFFSET -1.62519 -0.234802 1.16502
                  }
                }
              }
              JOINT rMid1
              {
                OFFSET -8.24714 1.18213 3.41376
                CHANNELS 3 Zrotation Xrotation Yrotation
                JOINT rMid2
                {
                  OFFSET -3.10165 -0.590103 1.0647
                  CHANNELS 3 Zrotation Xrotation Yrotation
                  End Site
                  {
                    OFFSET -2.48547 -0.328903 0.83742
                  }
                }
              }
              JOINT rRing1
              {
                OFFSET -8.82822 0.546677 1.51678
                CHANNELS 3 Zrotation Xrotation Yrotation
                JOINT rRing2
                {
                  OFFSET -2.60934 -0.819778 -0.0198488
                  CHANNELS 3 Zrotation Xrotation Yrotation
                  End Site
                  {
                    OFFSET -2.33842 -0.294052 0.168128
                  }
                }
              }
              JOINT rPinky1
              {
                OFFSET -8.27202 -0.0477905 -0.4584
                CHANNELS 3 Zrotation Xrotation Yrotation
                JOINT rPinky2
                {
                  OFFSET -1.82734 -0.647385 -0.700984
                  CHANNELS 3 Zrotation Xrotation Yrotation
                  End Site
                  {
                    OFFSET -1.69225 -0.51767 -0.607171
                  }
                }
              }
            }
          }
        }
      }
      JOINT lCollar
      {
        OFFSET 2.68224 19.2634 -4.8768
        CHANNELS 3 Zrotation Xrotation Yrotation
        JOINT lShldr
        {
          OFFSET 8.77824 -1.95073 1.46304
          CHANNELS 3 Zrotation Xrotation Yrotation
          JOINT lForeArm
          {
            OFFSET 28.1742 -1.7115 0.48768
            CHANNELS 3 Zrotation Xrotation Yrotation
            JOINT lHand
            {
              OFFSET 22.5879 0.773209 7.07136
              CHANNELS 3 Zrotation Xrotation Yrotation
              JOINT lThumb1
              {
                OFFSET 1.2192 -0.487915 3.41376
                CHANNELS 3 Zrotation Xrotation Yrotation
                JOINT lThumb2
                {
                  OFFSET 3.37035 -0.52449 3.41376
                  CHANNELS 3 Zrotation Xrotation Yrotation
                  End Site
                  {
                    OFFSET 1.78271 -1.18214 1.43049
                  }
                }
              }
              JOINT lIndex1
              {
                OFFSET 7.75947 0.938293 5.60832
                CHANNELS 3 Zrotation Xrotation Yrotation
                JOINT lIndex2
                {
                  OFFSET 2.54057 -0.884171 1.56538
                  CHANNELS 3 Zrotation Xrotation Yrotation
                  End Site
                  {
                    OFFSET 1.62519 -0.234802 1.16502
                  }
                }
              }
              JOINT lMid1
              {
                OFFSET 8.24714 1.18213 3.41376
                CHANNELS 3 Zrotation Xrotation Yrotation
                JOINT lMid2
                {
                  OFFSET 3.10165 -0.590103 1.0647
                  CHANNELS 3 Zrotation Xrotation Yrotation
                  End Site
                  {
                    OFFSET 2.48547 -0.328903 0.83742
                  }
                }
              }
              JOINT lRing1
              {
                OFFSET 8.82822 0.546677 1.51678
                CHANNELS 3 Zrotation Xrotation Yrotation
                JOINT lRing2
                {
                  OFFSET 2.60934 -0.819778 -0.0198488
                  CHANNELS 3 Zrotation Xrotation Yrotation
                  End Site
                  {
                    OFFSET 2.33842 -0.294052 0.168128
                  }
                }
              }
              JOINT lPinky1
              {
                OFFSET 8.27202 -0.0477905 -0.4584
                CHANNELS 3 Zrotation Xrotation Yrotation
                JOINT lPinky2
                {
                  OFFSET 1.82734 -0.647385 -0.700984
                  CHANNELS 3 Zrotation Xrotation Yrotation
                  End Site
                  {
                    OFFSET 1.69225 -0.51767 -0.607171
                  }
                }
              }
            }
          }
        }
      }
    }
  }
  JOINT rButtock
  {
    OFFSET -8.77824 4.35084 1.2192
    CHANNELS 3 Zrotation Xrotation Yrotation
    JOINT rThigh
    {
      OFFSET 0 -1.70687 -2.19456
      CHANNELS 3 Zrotation Xrotation Yrotation
      JOINT rShin
      {
        OFFSET 0 -36.8199 0.73152
        CHANNELS 3 Zrotation Xrotation Yrotation
        JOINT rFoot
        {
          OFFSET 0.73152 -45.1104 -5.12064
          CHANNELS 3 Zrotation Xrotation Yrotation
          End Site
          {
            OFFSET -1.1221 -3.69964 12.103
          }
        }
      }
    }
  }
  JOINT lButtock
  {
    OFFSET 8.77824 4.35084 1.2192
    CHANNELS 3 Zrotation Xrotation Yrotation
    JOINT lThigh
    {
      OFFSET 0 -1.70687 -2.19456
      CHANNELS 3 Zrotation Xrotation Yrotation
      JOINT lShin
      {
        OFFSET 0 -36.8199 0.73152
        CHANNELS 3 Zrotation Xrotation Yrotation
        JOINT lFoot
        {
          OFFSET -0.73152 -45.1104 -5.12064
          CHANNELS 3 Zrotation Xrotation Yrotation
          End Site
          {
            OFFSET 1.1221 -3.69964 12.103
          }
        }
      }
    }
  }
}
MOTION
Frames:	9
Frame Time:	0.00833333
5.78443 122.121 10.2223 -0.2341 -4.5051 3.9629 -0.203275 1.35734 0.0349987 -0.0356968 -3.74876 0.0373316 -5.30445 3.96634 -0.305732 10.22 -25.9968 2.88667 -0.0 0.0 0.0 -0.0 0.0 0.0 1.76916e-14 8.74594e-15 -3.8763e-15 35.7706 18.9189 39.5909 -22.441 -16.4341 44.9987 -0.102315 9.08515 1.28775 -2.12223e-10 -6.99952e-10 -2.49152e-10 -3.68599e-10 -1.18564e-09 -4.29339e-10 -2.12211e-10 -6.99951e-10 -2.49152e-10 7.73091 5.47488 0.417314 -2.12219e-10 -6.99961e-10 -2.49142e-10 2.90554 0.965183 0.102902 -2.12215e-10 -6.99962e-10 -2.49146e-10 10.2786 0.731801 0.0259123 -2.1223e-10 -6.99947e-10 -2.49126e-10 2.22167 -0.733487 -0.20892 1.74945e-14 8.74575e-15 -4.07509e-15 -43.4742 20.6207 -32.4258 26.7234 -25.4546 -60.0096 0.0611838 -7.04055 0.994546 -3.20436e-10 1.95619e-09 -2.32117e-11 -5.54009e-10 3.39204e-09 -4.22282e-11 -3.2044e-10 1.95619e-09 -2.31926e-11 -7.73091 5.47488 -0.417314 -3.20438e-10 1.95617e-09 -2.32053e-11 -2.90554 0.965183 -0.102902 -3.20441e-10 1.95616e-09 -2.32069e-11 -10.2786 0.731801 -0.0259123 -3.20425e-10 1.95618e-09 -2.32244e-11 -2.22167 -0.733487 0.20892 -2.03217e-16 0.0 -3.88251e-19 3.81532 -8.03322 12.9469 -0.138628 22.7073 -0.156635 9.09054 26.0579 -23.4454 2.03217e-16 0.0 3.88251e-19 -1.34817 -5.6296 -3.49763 0.114612 15.3446 0.247285 -7.33166 23.6985 21.9563
5.8473 123.3 10.2674 -0.3141 -4.1725 4.4965 0.333921 0.725242 -0.034975 -0.100346 -3.46077 0.0169163 -5.24972 3.92122 -0.299964 10.1249 -26.1128 2.8778 -0.0 0.0 0.0 -0.0 0.0 0.0 1.9119e-14 -1.71493e-15 3.66762e-14 37.0217 19.0409 38.551 -22.1114 -15.9226 44.1082 -0.107589 9.31767 1.32128 -2.08266e-10 -1.09664e-09 -3.70393e-10 -3.62372e-10 -1.87e-09 -6.39366e-10 -2.08255e-10 -1.09664e-09 -3.70394e-10 7.73091 5.47488 0.417314 -2.08263e-10 -1.09665e-09 -3.70387e-10 2.90554 0.965183 0.102902 -2.08257e-10 -1.09665e-09 -3.70389e-10 10.2786 0.731801 0.0259123 -2.08273e-10 -1.09664e-09 -3.70372e-10 2.22167 -0.733487 -0.20892 1.89744e-14 -1.71511e-15 3.64991e-14 -44.702 20.7986 -31.2751 26.3984 -24.5132 -58.5243 0.0626445 -7.12667 1.00683 -3.74892e-10 2.67589e-10 6.23634e-11 -6.48731e-10 4.65348e-10 1.0627e-10 -3.74897e-10 2.67583e-10 6.23801e-11 -7.73091 5.47488 -0.417314 -3.74895e-10 2.67572e-10 6.23675e-11 -2.90554 0.965183 -0.102902 -3.74895e-10 2.67561e-10 6.23676e-11 -10.2786 0.731801 -0.0259123 -3.74881e-10 2.67583e-10 6.23515e-11 -2.22167 -0.733487 0.20892 -2.03217e-16 0.0 -3.88251e-19 4.15426 -8.47429 12.9972 -0.130646 22.2507 -0.152485 8.79414 25.6732 -23.0934 2.03217e-16 0.0 3.88251e-19 -1.1217 -6.56958 -2.93066 0.117723 15.6329 0.241971 -7.22175 23.4698 21.9243
5.84323 124.407 10.3319 -0.6026 -3.7412 4.7332 1.03842 0.479212 -0.099831 -0.15213 -3.25923 -0.0016629 -5.22368 3.94028 -0.292911 10.0944 -26.6705 2.92947 -0.0 0.0 0.0 -0.0 0.0 0.0 1.69901e-14 -1.87853e-14 8.39027e-14 38.2421 19.0352 37.5474 -21.805 -15.4642 43.2806 -0.114438 9.60605 1.36295 -1.64335e-10 -1.15369e-09 -4.6701e-10 -2.86963e-10 -1.96802e-09 -8.0707e-10 -1.64325e-10 -1.15369e-09 -4.67013e-10 7.73091 5.47488 0.417314 -1.64334e-10 -1.15369e-09 -4.6701e-10 2.90554 0.965183 0.102902 -1.64325e-10 -1.15369e-09 -4.67011e-10 10.2786 0.731801 0.0259123 -1.6434e-10 -1.15369e-09 -4.66997e-10 2.22167 -0.733487 -0.20892 1.69287e-14 -1.87854e-14 8.37411e-14 -45.7603 20.9475 -30.251 26.0736 -23.6328 -57.0791 0.0656672 -7.29767 1.03125 -3.70219e-10 -2.64386e-09 1.80628e-10 -6.41314e-10 -4.58055e-09 3.11876e-10 -3.70223e-10 -2.64387e-09 1.8064e-10 -7.73091 5.47488 -0.417314 -3.70221e-10 -2.64387e-09 1.80628e-10 -2.90554 0.965183 -0.102902 -3.7022e-10 -2.64388e-09 1.80631e-10 -10.2786 0.731801 -0.0259123 -3.70208e-10 -2.64387e-09 1.80618e-10 -2.22167 -0.733487 0.20892 -2.03217e-16 0.0 -3.88251e-19 4.62407 -8.88636 12.9118 -0.122921 21.9137 -0.144282 8.47443 25.6754 -22.3203 2.03217e-16 0.0 3.88251e-19 -0.638333 -7.61754 -2.04068 0.124591 16.3771 0.228308 -7.09034 23.7609 21.335
5.80457 125.434 10.4499 -1.0996 -3.7468 4.9023 1.76127 0.598112 -0.186456 -0.185998 -3.19317 -0.0245912 -5.21476 3.97097 -0.292444 10.094 -27.3057 2.9859 -0.0 0.0 0.0 -0.0 0.0 0.0 1.32403e-14 -3.44146e-14 1.22412e-13 39.3975 19.0068 36.5744 -21.5072 -15.0333 42.4821 -0.120212 9.83807 1.39654 -1.20796e-10 -9.59492e-10 -5.1879e-10 -2.12025e-10 -1.63299e-09 -8.97067e-10 -1.20789e-10 -9.59488e-10 -5.18794e-10 7.73091 5.47488 0.417314 -1.20796e-10 -9.59493e-10 -5.18795e-10 2.90554 0.965183 0.102902 -1.20785e-10 -9.59495e-10 -5.18795e-10 10.2786 0.731801 0.0259123 -1.208e-10 -9.5949e-10 -5.18784e-10 2.22167 -0.733487 -0.20892 1.32611e-14 -3.44146e-14 1.2226e-13 -46.6881 21.102 -29.282 25.7453 -22.8004 -55.7083 0.0692208 -7.48917 1.05862 -3.06308e-10 -5.13037e-09 2.86172e-10 -5.31369e-10 -8.89159e-09 4.95634e-10 -3.06312e-10 -5.13038e-09 2.86179e-10 -7.73091 5.47488 -0.417314 -3.0631e-10 -5.13037e-09 2.86168e-10 -2.90554 0.965183 -0.102902 -3.06308e-10 -5.13037e-09 2.86174e-10 -10.2786 0.731801 -0.0259123 -3.06299e-10 -5.13037e-09 2.86165e-10 -2.22167 -0.733487 0.20892 -2.03217e-16 0.0 -3.88251e-19 5.13386 -9.24231 12.8077 -0.116747 21.7349 -0.133913 8.17119 25.9333 -21.3639 2.03217e-16 0.0 3.88251e-19 -0.0618183 -8.61068 -1.19747 0.132921 17.2838 0.211329 -6.94412 24.2732 20.5167
5.76857 126.395 10.5288 -1.5864 -3.6662 4.6373 2.35408 1.06079 -0.32175 -0.196984 -3.31163 -0.0580576 -5.21133 3.96074 -0.306432 10.0862 -27.6541 2.98918 -0.0 0.0 0.0 -0.0 0.0 0.0 9.80506e-15 -4.05519e-14 1.36814e-13 40.4608 19.0651 35.6236 -21.2005 -14.6008 41.6804 -0.121774 9.9015 1.40573 -1.18017e-10 -6.02462e-10 -5.05517e-10 -2.07208e-10 -1.01823e-09 -8.73972e-10 -1.18011e-10 -6.02458e-10 -5.05524e-10 7.73091 5.47488 0.417314 -1.18019e-10 -6.02461e-10 -5.05527e-10 2.90554 0.965183 0.102902 -1.18006e-10 -6.02463e-10 -5.05525e-10 10.2786 0.731801 0.0259123 -1.18021e-10 -6.02462e-10 -5.05517e-10 2.22167 -0.733487 -0.20892 9.87527e-15 -4.05519e-14 1.36664e-13 -47.5268 21.2955 -28.2954 25.4117 -22.0092 -54.4492 0.072067 -7.63679 1.07975 -1.8305e-10 -5.54414e-09 3.33586e-10 -3.18508e-10 -9.61372e-09 5.78586e-10 -1.83054e-10 -5.54414e-09 3.33589e-10 -7.73091 5.47488 -0.417314 -1.83051e-10 -5.54413e-09 3.3358e-10 -2.90554 0.965183 -0.102902 -1.83049e-10 -5.54413e-09 3.33586e-10 -10.2786 0.731801 -0.0259123 -1.83043e-10 -5.54414e-09 3.3358e-10 -2.22167 -0.733487 0.20892 -2.03217e-16 0.0 -3.88251e-19 5.5961 -9.51437 12.8024 -0.113518 21.7527 -0.123232 7.92679 26.3203 -20.4653 2.03217e-16 0.0 3.88251e-19 0.409942 -9.3878 -0.775142 0.1399 18.0598 0.196151 -6.8046 24.7081 19.8031
5.7937 127.314 10.5283 -1.8558 -3.4077 4.0201 2.87183 2.07802 -0.550657 -0.188289 -3.73601 -0.111736 -5.21434 3.87549 -0.332976 10.0655 -27.6125 2.935 -0.0 0.0 0.0 -0.0 0.0 0.0 6.40215e-15 -3.16438e-14 1.12043e-13 41.419 19.2554 34.6926 -20.8925 -14.1747 40.9023 -0.116623 9.70428 1.37712 -1.86395e-10 8.14762e-11 -3.85955e-10 -3.24881e-10 1.58652e-10 -6.66008e-10 -1.8639e-10 8.14794e-11 -3.85964e-10 7.73091 5.47488 0.417314 -1.86396e-10 8.14775e-11 -3.85967e-10 2.90554 0.965183 0.102902 -1.86385e-10 8.14754e-11 -3.85963e-10 10.2786 0.731801 0.0259123 -1.86401e-10 8.14764e-11 -3.85956e-10 2.22167 -0.733487 -0.20892 6.47269e-15 -3.16439e-14 1.11882e-13 -48.2918 21.5395 -27.227 25.0953 -21.3009 -53.3404 0.0741616 -7.74424 1.09513 7.14324e-11 -2.36369e-09 2.97498e-10 1.21654e-10 -4.1143e-09 5.16888e-10 7.14285e-11 -2.36369e-09 2.975e-10 -7.73091 5.47488 -0.417314 7.1432e-11 -2.36368e-09 2.97492e-10 -2.90554 0.965183 -0.102902 7.14336e-11 -2.36368e-09 2.97497e-10 -10.2786 0.731801 -0.0259123 7.14381e-11 -2.36369e-09 2.9749e-10 -2.22167 -0.733487 0.20892 -2.03217e-16 0.0 -3.88251e-19 6.08201 -9.66961 12.9484 -0.114129 22.0336 -0.111764 7.75331 26.9676 -19.5729 2.03217e-16 0.0 3.88251e-19 0.774476 -9.91518 -0.980877 0.145317 18.7347 0.182538 -6.68657 25.0548 19.228
5.83666 128.179 10.4585 -1.9913 -3.0697 3.3133 3.37454 3.58876 -0.847057 -0.16236 -4.40405 -0.179751 -5.22876 3.74993 -0.369203 10.0508 -27.3771 2.85058 -0.0 0.0 0.0 -0.0 0.0 0.0 2.26544e-15 -1.31195e-14 5.99615e-14 42.2946 19.5188 33.7846 -20.5911 -13.7685 40.1516 -0.107391 9.32696 1.32255 -2.97855e-10 1.07692e-09 -1.82833e-10 -5.16631e-10 1.87166e-09 -3.12827e-10 -2.97852e-10 1.07693e-09 -1.82845e-10 7.73091 5.47488 0.417314 -2.97856e-10 1.07692e-09 -1.82846e-10 2.90554 0.965183 0.102902 -2.97848e-10 1.07692e-09 -1.82839e-10 10.2786 0.731801 0.0259123 -2.97865e-10 1.07692e-09 -1.82833e-10 2.22167 -0.733487 -0.20892 2.30676e-15 -1.31199e-14 5.97783e-14 -48.9632 21.8161 -26.1293 24.8088 -20.6884 -52.3352 0.0760203 -7.83888 1.10868 4.33133e-10 3.17147e-09 2.06546e-10 7.47481e-10 5.46064e-09 3.60247e-10 4.33127e-10 3.17148e-09 2.0655e-10 -7.73091 5.47488 -0.417314 4.33132e-10 3.17147e-09 2.06542e-10 -2.90554 0.965183 -0.102902 4.33132e-10 3.17148e-09 2.06545e-10 -10.2786 0.731801 -0.0259123 4.33136e-10 3.17147e-09 2.06537e-10 -2.22167 -0.733487 0.20892 -2.03217e-16 0.0 -3.88251e-19 6.60753 -9.73104 13.1757 -0.117916 22.5383 -0.0987536 7.602 27.8919 -18.5885 2.03217e-16 0.0 3.88251e-19 1.09717 -10.2751 -1.58249 0.150542 19.429 0.16827 -6.57172 25.4499 18.6306
5.82655 128.968 10.3758 -2.1943 -2.8231 2.8084 3.71293 5.16423 -1.13111 -0.112232 -5.08925 -0.244916 -5.24901 3.63478 -0.421528 10.0391 -27.0331 2.7243 -0.0 0.0 0.0 -0.0 0.0 0.0 -1.3954e-15 6.59743e-15 5.56791e-15 43.1175 19.81 32.8986 -20.2743 -13.3559 39.3639 -0.0981665 8.91626 1.26336 -4.05062e-10 2.02626e-09 2.81108e-11 -7.00939e-10 3.50493e-09 5.38126e-11 -4.05059e-10 2.02626e-09 2.80953e-11 7.73091 5.47488 0.417314 -4.05062e-10 2.02626e-09 2.80974e-11 2.90554 0.965183 0.102902 -4.05057e-10 2.02626e-09 2.81066e-11 10.2786 0.731801 0.0259123 -4.05075e-10 2.02626e-09 2.81123e-11 2.22167 -0.733487 -0.20892 -1.39077e-15 6.59685e-15 5.36641e-15 -49.5305 22.1155 -25.1048 24.528 -20.1148 -51.3511 0.0770532 -7.89188 1.11628 7.5833e-10 8.56763e-09 9.63395e-11 1.31034e-09 1.47972e-08 1.70033e-10 7.58324e-10 8.56764e-09 9.63444e-11 -7.73091 5.47488 -0.417314 7.5833e-10 8.56763e-09 9.63377e-11 -2.90554 0.965183 -0.102902 7.58328e-10 8.56763e-09 9.6338e-11 -10.2786 0.731801 -0.0259123 7.58331e-10 8.56762e-09 9.63282e-11 -2.22167 -0.733487 0.20892 -2.03217e-16 0.0 -3.88251e-19 7.00369 -9.75459 13.4184 -0.123879 23.1469 -0.0856514 7.45508 28.7952 -17.6949 2.03217e-16 0.0 3.88251e-19 1.27356 -10.4821 -2.29651 0.15445 19.9857 0.155634 -6.45459 25.8157 18.0599
5.78479 129.699 10.3595 -2.4448 -2.6915 2.5442 3.72145 6.376 -1.32136 -0.0291949 -5.56509 -0.289884 -5.2694 3.58077 -0.496369 10.0276 -26.6659 2.5445 -0.0 0.0 0.0 -0.0 0.0 0.0 -3.37072e-15 1.90835e-14 -2.61402e-14 43.9141 20.0816 32.0341 -19.9158 -12.9063 38.4759 -0.0919858 8.61894 1.22063 -4.60677e-10 2.57187e-09 1.71136e-10 -7.96281e-10 4.44261e-09 3.02151e-10 -4.60674e-10 2.57187e-09 1.7112e-10 7.73091 5.47488 0.417314 -4.60676e-10 2.57187e-09 1.71123e-10 2.90554 0.965183 0.102902 -4.60673e-10 2.57186e-09 1.71134e-10 10.2786 0.731801 0.0259123 -4.60691e-10 2.57187e-09 1.71139e-10 2.22167 -0.733487 -0.20892 -3.38817e-15 1.90829e-14 -2.6339e-14 -49.9806 22.4299 -24.2571 24.2196 -19.513 -50.3116 0.0766581 -7.87442 1.11377 9.03305e-10 1.13311e-08 2.48401e-12 1.56158e-09 1.95815e-08 7.61584e-12 9.03298e-10 1.13311e-08 2.49037e-12 -7.73091 5.47488 -0.417314 9.03305e-10 1.13311e-08 2.48401e-12 -2.90554 0.965183 -0.102902 9.03302e-10 1.13311e-08 2.48242e-12 -10.2786 0.731801 -0.0259123 9.03305e-10 1.13311e-08 2.47129e-12 -2.22167 -0.733487 0.20892 -2.03217e-16 0.0 -3.88251e-19 7.10198 -9.79622 13.6105 -0.130845 23.7394 -0.0739649 7.32614 29.3768 -17.0844 2.03217e-16 0.0 3.88251e-19 1.20618 -10.5528 -2.83819 0.155695 20.2479 0.14698 -6.33418 26.0741 17.5661
